<?xml version="1.0" encoding="utf-8"?>
<!-- Generator: Adobe Illustrator 22.1.0, SVG Export Plug-In . SVG Version: 6.00 Build 0)  -->
<svg version="1.1" id="Layer_1" xmlns="http://www.w3.org/2000/svg" xmlns:xlink="http://www.w3.org/1999/xlink" x="0px" y="0px"
	 viewBox="0 0 268.9 158.3" style="enable-background:new 0 0 268.9 158.3;" xml:space="preserve">
<style type="text/css">
	.st0{fill:#FFFFFF;}
</style>
<path class="st0" d="M0,0h268.9v2.6H0V0z M14.4,74.1H8L0.4,17.7h7.7L11.4,47l0.2,1.8h0.6l0.2-1.8l3.5-29.3h6L25.4,47l0.2,1.8h0.6
	l0.2-1.8l3.3-29.3h7.7l-7.6,56.4h-6.4l-3.8-26.7L19,44.1h-0.3l-0.5,3.3L14.4,74.1z M56.4,49.5H50v24.6h-8.3V17.7H50V41h6.4V17.7h8.3
	v56.4h-8.3L56.4,49.5z"/>
<path class="st0" d="M81.7,74.7c-11.1,0-11.1-12.2-11.1-12.2V29.2c0,0-0.1-12.2,11.1-12.2s11.1,12.2,11.1,12.2v33.2
	C92.7,62.5,92.8,74.7,81.7,74.7 M81.7,25.1c-2.9,0-2.8,4.1-2.8,4.1v33.2c0,0-0.2,4.1,2.8,4.1s2.8-4.1,2.8-4.1V29.2
	C84.4,29.2,84.6,25.1,81.7,25.1"/>
<path class="st0" d="M98.6,17.7h8.3v48.7h11v7.7H98.6V17.7z"/>
<path class="st0" d="M121.6,17.7h19v8.5h-10.7V41h7.7V50h-7.7v15.5h10.7v8.5h-19V17.7z"/>
<path class="st0" d="M158.7,37.9v-8.7c0,0,0.2-4.1-2.8-4.1c-2.9,0-2.8,4.1-2.8,4.1v33.9c0,0-0.2,4.1,2.8,4.1c2.9,0,2.8-4.1,2.8-4.1
	V53h-3.3v-7H167v28.1h-4.9l-1-2.7c-1.5,1.9-3.8,3.3-6.4,3.3c-10.5,0-9.7-12.2-9.7-12.2V29.2c0,0-0.1-12.2,11.1-12.2
	S167,29.2,167,29.2v8.7L158.7,37.9L158.7,37.9z"/>
<path class="st0" d="M188.2,74.1l-4.3-23.8h-2.2v23.8h-8.3V17.7h8.3c9.8,0,14.1,5.7,14.1,16.3c0,5.6-1.5,10.7-4.6,12.8l5.3,27.3
	H188.2z M181.7,25.9v16.7c2.3,0,6.1-0.3,6.1-8.4S184,25.9,181.7,25.9"/>
<path class="st0" d="M199.1,74.1l8.5-56.4h10.1l8.5,56.4h-8.1l-1.5-11.5h-8l-1.5,11.5H199.1L199.1,74.1z M213.1,36l-0.2-1.5h-0.5
	l-0.2,1.5l-2.4,17.8h5.7L213.1,36z"/>
<path class="st0" d="M230.4,17.7h8.3v56.4h-8.3V17.7z"/>
<path class="st0" d="M253.9,44.7l-0.7-2.6h-0.5v32h-7.6V17.7h7.4l8.1,29.4l0.7,2.6h0.5v-32h7.6v56.4H262L253.9,44.7z"/>
<path class="st0" d="M22.1,143.1h-7.8v-2.8c0,0-3.3,3.4-6.1,3.4c-4.2,0-6-4.8-6-8.2v-26.8c0-3.5,1.8-8.2,6-8.2
	c2.8,0,6.1,3.4,6.1,3.4V86.6h7.8C22.1,86.6,22.1,143.1,22.1,143.1z M14.3,110.3c0-1.2-1.2-2.5-2.3-2.5c-1.2,0-2.1,1.1-2.1,2.5v23.6
	c0,1.5,0.9,2.5,2.1,2.5c1.1,0,2.3-1.1,2.3-2.5V110.3z"/>
<path class="st0" d="M28.5,86.6h7.8v7.8h-7.8V86.6z M28.5,101.1h7.8v42h-7.8C28.5,143.1,28.5,101.1,28.5,101.1z"/>
<path class="st0" d="M61.7,122.8c0,0-0.2,10.4-10,10.4c-0.5,0-1,0-1.5-0.1c-0.6,0.5-1.1,1.3-1.1,1.9c0,1.8,3.1,2.1,5.9,2.6
	c4.8,0.7,10.7,2.5,10.7,9.7c0,8.2-6.9,10.7-13.3,10.7c-7.4-0.2-12.4-1.9-12.4-8.1c0-2.8,3.1-5,6.1-6.4c-2.5-0.7-4.7-2.4-4.7-5.6
	c0-2.4,2.6-5.1,4.8-6.3c-4.4-2.9-4.5-9.1-4.5-9.1v-11.4c0,0,0.2-10.7,9.8-10.7c3.9,0,6.3,1.8,7.8,3.8c1.1-1.1,3.8-3.8,6.4-3.8v6.9
	c-2.1,0-3.6,0.5-4.5,0.9c0.4,1.5,0.4,2.6,0.4,2.6L61.7,122.8L61.7,122.8z M54.5,145.7l-4-0.8c-1.6,0.9-2.8,2.1-2.8,3.7
	c0,1.6,1.5,2.9,5.1,2.9c2.6,0,5.9-0.8,5.9-2.8C58.6,147.4,58.3,146.4,54.5,145.7 M51.7,107.6c-2.5,0-2.2,3.8-2.2,3.8V123
	c0,0-0.2,3.8,2.2,3.8c2.6,0,2.4-3.8,2.4-3.8v-11.5C54.1,111.4,54.3,107.6,51.7,107.6"/>
<path class="st0" d="M69.3,86.6h7.8v7.8h-7.8V86.6z M69.3,101.1h7.8v42h-7.8C69.3,143.1,69.3,101.1,69.3,101.1z"/>
<path class="st0" d="M92.6,90.7v10.4h5.3v7h-5.3v20.9c0,2.6,0,6.9,2.5,6.9c1.3,0,2.8-0.3,2.8-0.3v7.6c0,0-1.7,0.5-4.1,0.5
	c-8.9,0-8.9-9.2-8.9-14.1v-21.5h-3.9v-7h3.9V90.7H92.6z"/>
<path class="st0" d="M113.9,115.7v-4.6c0-1.5,0-3.8-2.1-3.8c-2.6,0-2.1,3.8-2.2,6.2h-7.8v-1.8c0-6.1,4.5-11.2,10.4-11.2
	c5.2,0,9.4,4.2,9.4,9.5c0,0,0,0,0,0.1v25.8c0,3.8,0.2,5.4,0.5,7.3h-7.6c-0.7-0.8-0.7-2.9-0.7-3.4h-0.5c-0.8,1.5-3.1,4-6.2,4
	c-2.1,0-6.2-1.5-6.2-10.4C100.9,119.1,113.1,118.2,113.9,115.7 M110.7,136.1c1.8,0,3.2-1.1,3.2-2.5v-10.7c-3.8,1.6-5.4,5.4-5.4,9.4
	C108.5,133.2,108.8,136.1,110.7,136.1"/>
<path class="st0" d="M127.8,86.6h7.8v56.4h-7.8V86.6z"/>
</svg>
