<?xml version="1.0" encoding="utf-8"?>
<!-- Generator: Adobe Illustrator 23.1.1, SVG Export Plug-In . SVG Version: 6.00 Build 0)  -->
<svg version="1.1" id="Layer_1" xmlns="http://www.w3.org/2000/svg" xmlns:xlink="http://www.w3.org/1999/xlink" x="0px" y="0px"
	 viewBox="0 0 2048 2048" style="enable-background:new 0 0 2048 2048;" xml:space="preserve">
<path d="M1422.2,639.9H625.8c-62.6,0-113.8,51.2-113.8,113.8v540.5c0,62.6,51.2,113.8,113.8,113.8h796.4
	c62.6,0,113.8-51.2,113.8-113.8V753.7C1536,691.1,1484.8,639.9,1422.2,639.9z M1493.4,1282.4c0,57.4-25.6,83-83,83H637.7
	c-57.4,0-83-25.6-83-83V765.5c0-57.4,25.6-83,83-83h772.7c57.4,0,83,25.6,83,83V1282.4z M832.1,938.6l106.6,85.4l277.3-234.7
	l213.4,192.1v320.1H618.7v-192.1L832.1,938.6z M704.1,746.6c-47.1,0-85.4,38.2-85.4,85.4s38.2,85.4,85.4,85.4s85.4-38.2,85.4-85.4
	C789.4,784.9,751.2,746.6,704.1,746.6z"/>
</svg>
